#!OML:ASF F:\VICON\USERDATA\INSTALL\rory3\rory3.ASF
:FULLY-SPECIFIED
:DEGREES
2381
root 0.628997 15.7117 -1.99738 -6.19804 -0.475256 -0.749674
lowerback 13.578 2.3816 -0.520298
upperback 5.94969 3.08179 0.142171
thorax -1.38462 1.52799 -0.00485376
lowerneck -0.314666 -9.93186 -14.3316
upperneck 31.9691 -17.2899 14.8528
head 13.497 -8.05491 6.15829
rclavicle 1.49337e-014 -6.36111e-015
rhumerus 40.9803 26.8314 -440.413
rradius 85.3859
rwrist 345.485
rhand -21.9748 8.32235
rfingers 7.12502
rthumb 4.43312 -21.6113
lclavicle 1.49337e-014 -6.36111e-015
lhumerus 35.8667 -13.2323 80.4305
lradius 89.1199
lwrist 57.2452
lhand -20.8117 35.0796
lfingers 7.12502
lthumb 5.55614 64.9868
rfemur -9.97425 9.74307 15.7811
rtibia 30.7983
rfoot -11.9383 -11.3192
rtoes -13.5583
lfemur -9.9546 -9.31017 -17.3781
ltibia 29.8936
lfoot -11.5333 6.56925
ltoes -14.7218
2382
root 0.630902 15.705 -2.01617 -6.26845 -0.473799 -0.714991
lowerback 13.7653 2.49413 -0.317834
upperback 6.11508 3.25435 0.164159
thorax -1.30235 1.61703 -0.124102
lowerneck -0.275574 -10.1495 -14.1744
upperneck 32.0554 -17.727 15.1052
head 13.636 -8.20504 6.17235
rclavicle 1.2014e-014 1.98785e-015
rhumerus 42.3836 26.6909 -440.196
rradius 83.3571
rwrist 345.085
rhand -21.6429 7.93178
rfingers 7.12502
rthumb 4.75362 -21.9949
lclavicle 1.2014e-014 1.98785e-015
lhumerus 36.7974 -12.6625 80.1801
lradius 87.6465
lwrist 58.0484
lhand -20.719 35.3542
lfingers 7.12502
lthumb 5.6457 65.259
rfemur -10.1084 9.77651 15.7312
rtibia 31.029
rfoot -12.0166 -11.2836
rtoes -13.111
lfemur -9.99574 -9.39269 -17.43
ltibia 29.9897
lfoot -11.5196 6.62271
ltoes -14.5646
2383
root 0.633181 15.6958 -2.03649 -6.34945 -0.490972 -0.76199
lowerback 13.9976 2.65563 0.0719998
upperback 6.34655 3.51443 0.162647
thorax -1.16023 1.7541 -0.385591
lowerneck -0.419016 -10.4512 -13.8106
upperneck 32.0455 -18.2773 15.3587
head 13.7723 -8.37026 6.11633
rclavicle -7.14382e-015 2.33572e-015
rhumerus 43.7371 26.3261 -439.936
rradius 81.2831
rwrist 344.803
rhand -21.8136 7.03221
rfingers 7.12502
rthumb 4.58873 -22.8981
lclavicle -7.14382e-015 2.33572e-015
lhumerus 37.8042 -12.4276 80.0186
lradius 86.1607
lwrist 58.7549
lhand -20.8069 35.5136
lfingers 7.12502
lthumb 5.56083 65.4207
rfemur -10.262 9.80095 15.7819
rtibia 31.3049
rfoot -12.025 -11.2845
rtoes -12.8836
lfemur -10.0467 -9.30013 -17.3753
ltibia 30.0764
lfoot -11.4592 6.48314
ltoes -14.6559
2384
root 0.63818 15.6892 -2.05678 -6.4098 -0.522028 -0.604218
lowerback 14.176 2.73564 0.0709661
upperback 6.56747 3.62102 0.270192
thorax -1.02953 1.80647 -0.290814
lowerneck -0.445156 -10.6155 -13.9552
upperneck 32.0071 -18.6066 15.6927
head 13.8972 -8.49843 6.2228
rclavicle 2.59414e-014 -5.19325e-015
rhumerus 45.0817 26.438 -439.492
rradius 79.3034
rwrist 344.473
rhand -22.3078 5.69674
rfingers 7.12502
rthumb 4.11158 -24.2433
lclavicle 2.59414e-014 -5.19325e-015
lhumerus 38.4493 -11.8603 80.0962
lradius 84.7269
lwrist 59.2248
lhand -20.9277 35.7927
lfingers 7.12502
lthumb 5.44415 65.7028
rfemur -10.4542 9.75585 15.58
rtibia 31.5979
rfoot -12.049 -11.1603
rtoes -12.915
lfemur -10.1238 -9.25945 -17.5643
ltibia 30.1931
lfoot -11.5287 6.45601
ltoes -14.7974
2385
root 0.643481 15.6815 -2.07672 -6.49771 -0.517437 -0.355278
lowerback 14.3839 2.7758 -0.199462
upperback 6.79113 3.64236 0.459405
thorax -0.933745 1.80912 0.0502945
lowerneck -0.454781 -10.7267 -14.35
upperneck 32.0421 -18.8614 16.0655
head 14.0767 -8.62009 6.40668
rclavicle -2.08724e-014 1.71949e-014
rhumerus 46.3745 26.8 -439.135
rradius 77.3764
rwrist 343.939
rhand -22.1549 5.04692
rfingers 7.12502
rthumb 4.25922 -24.8902
lclavicle -2.08724e-014 1.71949e-014
lhumerus 38.9022 -11.0444 80.1798
lradius 83.3904
lwrist 59.6214
lhand -20.909 36.0989
lfingers 7.12502
lthumb 5.46222 66.0085
rfemur -10.6358 9.67603 15.2681
rtibia 31.9374
rfoot -12.1556 -11.0223
rtoes -12.8541
lfemur -10.1704 -9.29107 -17.8693
ltibia 30.3312
lfoot -11.5945 6.45599
ltoes -14.6265
2386
root 0.647401 15.6702 -2.09898 -6.60671 -0.515768 -0.193839
lowerback 14.6667 2.81305 -0.385726
upperback 7.0157 3.67012 0.685206
thorax -0.873617 1.8152 0.377874
lowerneck -0.591331 -10.8255 -14.4948
upperneck 32.1427 -19.0542 16.2357
head 14.2429 -8.6929 6.46894
rclavicle -6.90777e-015 1.78906e-015
rhumerus 47.5809 27.1919 -438.83
rradius 75.4902
rwrist 343.56
rhand -21.6977 4.87208
rfingers 7.12502
rthumb 4.70066 -25.0558
lclavicle -6.90777e-015 1.78906e-015
lhumerus 39.3708 -10.1273 80.2442
lradius 81.9997
lwrist 60.2608
lhand -20.65 36.2466
lfingers 7.12502
lthumb 5.71231 66.1496
rfemur -10.833 9.66918 15.0738
rtibia 32.3296
rfoot -12.1963 -10.9966
rtoes -13.1011
lfemur -10.2192 -9.29701 -18.0709
ltibia 30.4691
lfoot -11.5237 6.40726
ltoes -14.6046
2387
root 0.650666 15.6559 -2.12539 -6.69385 -0.527559 -0.0604345
lowerback 14.9635 2.88004 -0.403435
upperback 7.24579 3.75691 0.859598
thorax -0.801547 1.85481 0.548488
lowerneck -0.598073 -10.9496 -14.3925
upperneck 31.9777 -19.2527 16.3544
head 14.2174 -8.75484 6.4574
rclavicle -3.3694e-014 -1.05356e-014
rhumerus 48.6142 27.4577 -438.663
rradius 73.598
rwrist 343.61
rhand -21.4743 4.49793
rfingers 7.12502
rthumb 4.91643 -25.425
lclavicle -3.3694e-014 -1.05356e-014
lhumerus 39.8571 -9.39593 80.2196
lradius 80.5865
lwrist 61.098
lhand -20.2876 36.2708
lfingers 7.12502
lthumb 6.06215 66.164
rfemur -11.0899 9.68889 14.9115
rtibia 32.7302
rfoot -12.2597 -10.9779
rtoes -12.9251
lfemur -10.3329 -9.31483 -18.2266
ltibia 30.6418
lfoot -11.4679 6.41187
ltoes -14.8059
2388
root 0.653912 15.6421 -2.15207 -6.78991 -0.538548 0.197841
lowerback 15.2085 2.96947 -0.355412
upperback 7.55064 3.87828 0.884873
thorax -0.608821 1.91565 0.527122
lowerneck -0.593369 -11.1121 -14.2124
upperneck 31.6939 -19.5381 16.6058
head 14.1643 -8.8385 6.46808
rclavicle -2.04748e-014 1.39149e-014
rhumerus 49.6052 27.5296 -438.758
rradius 71.585
rwrist 343.662
rhand -21.3039 4.19243
rfingers 7.12502
rthumb 5.08092 -25.7267
lclavicle -2.04748e-014 1.39149e-014
lhumerus 40.4187 -8.86223 80.1221
lradius 79.1591
lwrist 61.9016
lhand -19.7522 36.5091
lfingers 7.12502
lthumb 6.57904 66.3869
rfemur -11.3461 9.65954 14.599
rtibia 33.1261
rfoot -12.3171 -10.876
rtoes -12.4469
lfemur -10.4466 -9.32666 -18.5285
ltibia 30.8439
lfoot -11.5176 6.46641
ltoes -15.0977
2389
root 0.658056 15.631 -2.17524 -6.8709 -0.538066 0.281806
lowerback 15.4053 3.00919 -0.146126
upperback 7.86319 3.95697 0.966236
thorax -0.37447 1.95873 0.483559
lowerneck -0.755978 -11.2737 -14.1095
upperneck 31.5946 -19.8295 16.8387
head 14.2447 -8.922 6.48276
rclavicle 5.68524e-014 -1.11319e-014
rhumerus 50.5688 27.6862 -438.731
rradius 69.6101
rwrist 343.623
rhand -21.2549 4.12884
rfingers 7.12502
rthumb 5.12824 -25.7891
lclavicle 5.68524e-014 -1.11319e-014
lhumerus 40.8809 -8.37634 79.9331
lradius 77.7279
lwrist 62.5065
lhand -19.3447 36.7766
lfingers 7.12502
lthumb 6.97237 66.6418
rfemur -11.5676 9.56217 14.4777
rtibia 33.5077
rfoot -12.3567 -10.8086
rtoes -12.7409
lfemur -10.5737 -9.3245 -18.637
ltibia 31.0696
lfoot -11.5423 6.41225
ltoes -15.0335
2390
root 0.660155 15.6215 -2.19889 -6.8808 -0.568792 0.358642
lowerback 15.5952 3.07656 -0.0384094
upperback 8.107 4.06039 1.1343
thorax -0.221649 2.01003 0.581068
lowerneck -0.917238 -11.4324 -14.0508
upperneck 31.5515 -20.0818 16.9511
head 14.3298 -9.00112 6.46211
rclavicle 2.8625e-014 -6.75868e-015
rhumerus 51.4081 27.9228 -438.378
rradius 67.7237
rwrist 343.699
rhand -21.2563 4.1262
rfingers 7.12502
rthumb 5.12688 -25.7918
lclavicle 2.8625e-014 -6.75868e-015
lhumerus 41.152 -7.99594 79.7359
lradius 76.2059
lwrist 62.9951
lhand -19.0061 36.4936
lfingers 7.12502
lthumb 7.29922 66.3477
rfemur -11.8721 9.55415 14.3617
rtibia 33.8701
rfoot -12.3679 -10.7503
rtoes -13.003
lfemur -10.7936 -9.26566 -18.7114
ltibia 31.3161
lfoot -11.5206 6.33279
ltoes -15.0759
2391
root 0.663065 15.609 -2.22547 -6.90386 -0.599306 0.470813
lowerback 15.8716 3.13716 0.0529874
upperback 8.31455 4.15272 1.29405
thorax -0.152466 2.05535 0.674691
lowerneck -0.908914 -11.5674 -13.9952
upperneck 31.4136 -20.3028 17.092
head 14.3306 -9.07751 6.46495
rclavicle -3.97569e-016 -1.35174e-014
rhumerus 52.0652 28.1939 -438.144
rradius 65.7092
rwrist 343.869
rhand -21.4597 4.65571
rfingers 7.12502
rthumb 4.93044 -25.2669
lclavicle -3.97569e-016 -1.35174e-014
lhumerus 41.2571 -7.63227 79.5926
lradius 74.6804
lwrist 63.7133
lhand -18.5491 36.0293
lfingers 7.12502
lthumb 7.74033 65.8677
rfemur -12.1781 9.50911 14.194
rtibia 34.2125
rfoot -12.4041 -10.6166
rtoes -13.1666
lfemur -11.04 -9.24604 -18.8299
ltibia 31.6042
lfoot -11.5152 6.2938
ltoes -15.2532
2392
root 0.666816 15.5966 -2.2511 -6.96919 -0.589495 0.469799
lowerback 16.1605 3.14866 0.267938
upperback 8.53686 4.19831 1.48492
thorax -0.0665275 2.08051 0.739127
lowerneck -0.893223 -11.644 -14.0349
upperneck 31.2849 -20.4722 17.3614
head 14.3567 -9.13276 6.5512
rclavicle -1.8487e-014 4.77083e-015
rhumerus 52.5451 28.4211 -438.19
rradius 63.7174
rwrist 343.971
rhand -21.7229 4.71268
rfingers 7.12502
rthumb 4.67635 -25.2157
lclavicle -1.8487e-014 4.77083e-015
lhumerus 41.3031 -7.2498 79.5305
lradius 73.3088
lwrist 64.5936
lhand -18.4043 36.0937
lfingers 7.12502
lthumb 7.88016 65.9268
rfemur -12.4088 9.39671 14.1595
rtibia 34.5552
rfoot -12.4217 -10.5198
rtoes -13.1764
lfemur -11.2485 -9.21624 -18.8368
ltibia 31.9048
lfoot -11.5391 6.23345
ltoes -15.4504
